HIERARCHY
ROOT Hips
{
    OFFSET 0.000000 0.000000 0.000000
    CHANNELS 6 Xposition Yposition Zposition Zrotation Xrotation Yrotation
    JOINT Spine
    {
        OFFSET -0.000000 0.081317 0.000000
        CHANNELS 3 Zrotation Xrotation Yrotation
        JOINT Spine1
        {
            OFFSET -0.000000 0.225200 0.000000
            CHANNELS 3 Zrotation Xrotation Yrotation
            JOINT Neck
            {
                OFFSET -0.000000 0.224275 0.020389
                CHANNELS 3 Zrotation Xrotation Yrotation
                JOINT Head
                {
                    OFFSET -0.000000 0.138833 -0.019833
                    CHANNELS 3 Zrotation Xrotation Yrotation
                    End Site
                    {
                        OFFSET -0.000000 0.198333 0.000000
                    }
                }
            }
            JOINT LeftShoulder
            {
                OFFSET 0.039732 0.208237 -0.000812
                CHANNELS 3 Zrotation Xrotation Yrotation
                JOINT LeftArm
                {
                    OFFSET 0.110955 0.000000 0.000000
                    CHANNELS 3 Zrotation Xrotation Yrotation
                    JOINT LeftForeArm
                    {
                        OFFSET 0.324523 0.000000 0.000000
                        CHANNELS 3 Zrotation Xrotation Yrotation
                        JOINT LeftHand
                        {
                            OFFSET 0.302601 0.000000 0.000000
                            CHANNELS 3 Zrotation Xrotation Yrotation
                            End Site
                            {
                                OFFSET 0.148750 0.000000 0.000000
                            }
                        }
                    }
                }
            }
            JOINT RightShoulder
            {
                OFFSET -0.039598 0.208237 -0.000812
                CHANNELS 3 Zrotation Xrotation Yrotation
                JOINT RightArm
                {
                    OFFSET -0.110955 0.000000 0.000000
                    CHANNELS 3 Zrotation Xrotation Yrotation
                    JOINT RightForeArm
                    {
                        OFFSET -0.324523 0.000000 0.000000
                        CHANNELS 3 Zrotation Xrotation Yrotation
                        JOINT RightHand
                        {
                            OFFSET -0.302601 0.000000 0.000000
                            CHANNELS 3 Zrotation Xrotation Yrotation
                            End Site
                            {
                                OFFSET -0.148750 0.000000 0.000000
                            }
                        }
                    }
                }
            }
        }
    }
    JOINT LeftUpLeg
    {
        OFFSET 0.099167 0.000000 0.000000
        CHANNELS 3 Zrotation Xrotation Yrotation
        JOINT LeftLeg
        {
            OFFSET -0.000000 -0.380753 0.000000
            CHANNELS 3 Zrotation Xrotation Yrotation
            JOINT LeftFoot
            {
                OFFSET -0.000000 -0.440093 0.000000
                CHANNELS 3 Zrotation Xrotation Yrotation
                JOINT LeftToeBase
                {
                    OFFSET -0.000000 -0.064458 0.148750
                    CHANNELS 3 Zrotation Xrotation Yrotation
                    End Site
                    {
                        OFFSET -0.000000 0.000000 0.039667
                    }
                }
            }
        }
    }
    JOINT RightUpLeg
    {
        OFFSET -0.099167 0.000000 0.000000
        CHANNELS 3 Zrotation Xrotation Yrotation
        JOINT RightLeg
        {
            OFFSET -0.000000 -0.380753 0.000000
            CHANNELS 3 Zrotation Xrotation Yrotation
            JOINT RightFoot
            {
                OFFSET -0.000000 -0.440093 0.000000
                CHANNELS 3 Zrotation Xrotation Yrotation
                JOINT RightToeBase
                {
                    OFFSET -0.000000 -0.064458 0.148750
                    CHANNELS 3 Zrotation Xrotation Yrotation
                    End Site
                    {
                        OFFSET -0.000000 0.000000 0.039667
                    }
                }
            }
        }
    }
}
MOTION
Frames:    14
Frame Time:    0.010000
-0.267325    1.021806    0.314879    -9.271590    2.226645    40.280880    14.047279    -16.572544    5.020613    -14.190161    20.614426    3.652408    18.641163    40.249043    -13.267020    1.220591    -37.199848    -8.617057    6.569851    22.365801    -11.241463    -44.112679    -6.663498    21.794058    -8.811341    31.161385    -109.233894    17.415165    17.630968    -15.742389    27.699549    1.787769    17.990602    17.659765    58.558224    31.532175    -23.944351    -55.768860    120.779510    20.409498    -21.006493    5.918569    4.229028    1.268281    26.141790    0.001642    -2.577050    26.008402    34.309898    33.673870    -62.910366    0.000000    0.000000    0.000000    8.597807    0.506070    -10.540835    -6.467478    28.879034    19.454401    -4.610662    31.897270    -1.214025    0.000000    0.000000    0.000000    
-0.258446    1.025476    0.329731    -2.048712    -0.878030    37.366222    8.451308    -12.232584    6.315907    -12.147821    23.458418    4.374037    18.524197    40.360279    -13.479638    1.163153    -36.641273    -8.876122    6.068157    21.949806    -11.761887    -44.439701    -7.294100    21.207283    -8.238658    30.508533    -108.725296    16.656332    17.902948    -15.681553    27.860563    2.197520    17.766115    19.454819    58.763348    29.220129    -24.427691    -56.645592    119.883438    20.331387    -22.300838    6.279429    0.514559    9.283295    31.718969    -2.027874    -3.982636    24.697792    39.467396    33.670071    -64.571152    0.000000    0.000000    0.000000    5.261885    8.850742    -6.607507    -7.208183    32.409355    18.105459    -4.760804    29.962389    0.005578    0.000000    0.000000    0.000000    
-0.257639    1.019633    0.328316    -1.948670    -0.803654    37.711803    8.278229    -12.553847    6.678838    -12.412842    24.376978    4.653565    20.705471    39.275249    -14.126394    -2.043018    -36.077858    -10.685139    5.973834    20.991564    -12.436573    -45.026234    -8.182921    20.150055    -7.852110    30.460316    -107.935013    17.083858    18.449972    -15.778790    28.116310    2.173178    16.656494    20.209816    59.362865    28.066509    -25.551573    -57.899021    118.203880    19.308430    -23.855034    6.502382    0.475983    7.957297    32.324509    -2.218403    -2.956767    21.980900    36.755772    34.628998    -61.179165    0.000000    0.000000    0.000000    5.108822    9.135776    -4.524779    -7.432532    36.974445    15.210564    -5.310977    25.468967    3.028971    0.000000    0.000000    0.000000    
-0.257857    1.012926    0.328443    -1.689288    -0.934173    37.878586    7.828376    -12.483041    6.850569    -12.376395    24.900982    4.776969    20.584974    39.248421    -14.089111    -2.286208    -35.990795    -10.788526    5.198995    20.297014    -12.484464    -45.795219    -7.602755    18.958574    -6.469984    28.454407    -107.749237    17.352289    18.071171    -15.837235    28.332882    2.680914    15.961831    21.827717    59.680347    26.195736    -26.368469    -58.747002    116.589630    18.506462    -25.308378    6.631670    0.431706    6.988544    33.255684    -1.881961    -1.887712    22.008669    35.413712    34.516403    -60.367355    0.000000    0.000000    0.000000    5.284058    8.317953    -2.024275    -7.710123    43.821911    11.985754    -6.191559    22.102398    5.597602    0.000000    0.000000    0.000000    
-0.257807    1.004647    0.327740    -1.273903    -0.951470    38.203823    7.504478    -12.141262    6.857068    -12.802584    24.923534    4.891828    18.238188    40.291214    -13.539447    1.204826    -36.186703    -9.010896    4.295306    19.909195    -12.568350    -45.911415    -7.961204    17.607016    -5.832793    27.627890    -106.912132    17.263195    18.087700    -16.232807    28.813192    3.561437    15.463729    24.181837    59.712017    23.442678    -27.292530    -59.361042    114.733444    17.976131    -26.426296    6.592514    -0.104783    5.837902    34.012222    -0.689966    -0.593130    22.482307    33.581676    34.819996    -59.016823    0.000000    0.000000    0.000000    5.253756    7.951368    0.050655    -7.769892    50.305351    10.459864    -6.106875    17.893789    5.396442    0.000000    0.000000    0.000000    
-0.258320    0.995089    0.326488    -0.974310    -0.860916    38.685802    6.717598    -12.533209    7.039426    -12.457360    26.667824    5.091765    19.353598    37.982658    -13.570841    -1.310187    -35.033405    -10.374474    3.800757    18.423428    -12.321098    -46.822330    -8.039351    15.377139    -5.309952    27.197384    -106.085625    16.681473    18.529570    -15.912016    28.633360    2.968569    14.079791    26.133471    60.216156    21.819410    -27.765970    -59.816177    113.266266    18.295368    -27.556957    7.353199    -0.580427    4.364110    34.031418    0.626757    1.118009    23.150795    32.082775    34.718868    -55.802845    0.000000    0.000000    0.000000    5.157539    7.167851    1.577885    -7.903854    57.288483    8.868093    -6.196635    13.565148    5.743432    0.000000    0.000000    0.000000    
-0.259501    0.984156    0.324871    -0.889571    -0.636494    39.246719    -2.416016    -17.089945    4.915246    9.934376    36.912659    -1.573340    -1.501021    23.439560    -10.256212    4.668100    -24.683983    -9.135593    -11.337610    10.581852    -7.880887    -43.964218    -1.867117    12.517899    -4.417286    24.267900    -105.734589    15.516435    16.677113    -16.538733    10.049685    -2.395508    9.836764    31.934582    57.292023    28.811533    -19.934439    -52.636452    119.990608    17.299028    -24.745789    3.671797    -0.798205    2.761791    32.217587    2.175029    2.891354    31.415556    34.209236    30.874901    -63.156197    0.000000    0.000000    0.000000    5.280806    6.117165    2.230437    -9.838358    64.413086    13.082950    -5.849375    9.352451    2.727045    0.000000    0.000000    0.000000    
-0.260849    0.972172    0.323054    -0.885808    -0.447571    39.894344    -2.703590    -16.973513    4.677809    9.542496    37.126770    -1.528129    -1.574796    23.658537    -10.143042    5.045424    -24.910284    -8.884806    -11.840895    10.144260    -7.901845    -44.782948    -2.179744    10.390816    -4.027156    23.529327    -104.824730    14.792545    16.611790    -16.325420    10.738057    -1.655581    8.989019    34.439358    56.875454    25.681156    -19.353912    -52.628128    119.304741    19.040926    -26.015949    4.669179    -0.735068    1.123695    31.307178    3.284340    5.739700    28.656298    28.713469    30.342709    -59.688118    0.000000    0.000000    0.000000    5.173462    4.828059    2.184520    -13.921592    71.467667    16.641464    -6.769341    5.766197    3.871978    0.000000    0.000000    0.000000    
-0.262248    0.959253    0.321015    -0.964489    -0.296892    40.564854    -2.689798    -16.973728    4.330073    8.753754    37.665810    -1.424307    -1.889335    23.193947    -9.827936    5.729315    -24.427971    -8.353927    -12.149782    9.464396    -7.657337    -45.427395    -3.453462    7.962126    -4.517668    24.432545    -103.570206    14.118672    17.166403    -16.317312    11.392251    -1.281852    8.249769    37.577721    56.376015    22.293949    -18.142559    -52.236027    119.172318    20.273125    -27.513199    4.817467    -0.632575    -0.782172    30.496283    4.945104    8.937690    27.639265    24.000425    27.616541    -58.709919    0.000000    0.000000    0.000000    4.918853    3.526430    1.452730    -25.434332    77.898514    27.870043    -6.563902    2.292851    6.144842    0.000000    0.000000    0.000000    
-0.264077    0.945668    0.318530    -1.226769    -0.134159    41.213722    -2.552644    -16.773571    3.984107    7.678625    37.698521    -1.179847    -0.650270    23.284817    -9.893561    4.697345    -25.161274    -8.668785    -12.186383    8.955109    -7.360960    -46.588486    -4.044617    5.529988    -4.626235    24.574192    -102.812859    16.132137    16.994164    -16.199642    12.325752    -0.951773    7.404951    40.838211    55.866783    18.555416    -16.067627    -51.126095    119.678215    18.994934    -29.201839    4.324658    -0.286464    -2.709399    29.004183    6.195349    12.051470    23.531584    17.444008    25.877821    -54.374958    0.000000    0.000000    0.000000    4.916909    1.981769    0.262349    -55.270260    82.715240    57.626671    -7.285338    0.379624    2.949864    0.000000    0.000000    0.000000    
-0.265793    0.931447    0.316160    -1.597815    0.002542    41.720730    -2.392156    -16.651445    3.620258    6.816888    37.772392    -1.017266    0.584086    23.197697    -9.753043    3.429270    -25.921516    -8.864884    -12.537229    8.262373    -6.946830    -47.692730    -4.210471    3.161513    -5.049928    24.855873    -102.160706    17.913998    16.476259    -17.017597    12.997128    -0.733064    6.581781    44.665726    55.018478    14.261578    -15.962273    -50.763596    118.734406    23.100933    -28.962133    5.707302    0.125341    -4.677681    27.269922    7.172771    15.317966    22.021442    12.097258    22.448788    -52.103607    0.000000    0.000000    0.000000    4.787518    0.479041    0.017885    -111.244759    83.320328    116.138031    -8.126410    -1.798754    0.040940    0.000000    0.000000    0.000000    
-0.267615    0.917021    0.313803    -2.025568    0.146500    42.127110    -2.203416    -16.364969    3.237577    5.847109    37.581615    -0.810207    1.870030    23.090389    -9.589469    2.143991    -26.964020    -9.053364    -12.996389    7.405415    -6.243252    -48.740780    -4.008342    0.901215    -4.697182    24.771601    -102.177322    17.644751    16.840023    -17.054867    13.755270    -0.630840    5.749123    48.429276    53.860504    9.805012    5.517803    -39.643726    132.956299    29.617123    -7.750648    -1.501481    0.655146    -6.554084    26.859789    8.305439    18.523258    19.877157    6.716339    18.637711    -50.144363    0.000000    0.000000    0.000000    4.457155    -0.961556    0.113311    -142.237671    79.400932    146.407532    -9.004877    -4.619898    3.351289    0.000000    0.000000    0.000000    
-0.270056    0.903648    0.313294    -2.206889    -0.027622    41.982506    -2.435095    -15.739923    3.300982    5.708830    37.594753    -0.734827    3.148698    22.726789    -9.583131    0.786314    -28.348581    -9.463934    -13.871339    5.712508    -5.855107    -49.732838    -2.673745    -0.577766    -4.119127    23.783968    -102.602539    17.162323    16.436516    -17.647243    14.305481    -0.859992    4.786629    52.354080    52.234921    5.014337    -13.219609    -47.526001    119.039841    24.229721    -28.868948    5.210370    1.505321    -7.413501    28.155590    9.033874    20.814186    17.534813    3.336424    13.380704    -49.871510    0.000000    0.000000    0.000000    4.402790    -2.005456    1.356251    -156.734970    75.216202    159.801453    -9.488024    -6.511769    4.217777    0.000000    0.000000    0.000000    
-0.271556    0.890477    0.308419    -2.817632    0.912155    42.267319    -2.049735    -15.918034    3.234263    4.005261    37.539032    -0.173920    5.025488    22.233444    -9.688729    -0.687182    -29.951973    -10.049510    -14.561886    3.514215    -6.071453    -50.533333    -1.243097    -1.780211    -3.729289    23.096985    -103.520424    16.798178    16.310442    -16.662029    15.076025    -1.096477    3.785508    55.785221    49.457924    0.348294    -11.588890    -44.559036    119.410118    22.143917    -27.886093    3.635462    0.936245    -9.655513    29.701294    11.183553    22.407303    16.266468    0.569569    8.835217    -51.243427    0.000000    0.000000    0.000000    3.551901    -4.412861    1.762130    -161.886917    70.565445    165.650101    -9.730783    -8.129244    3.775245    0.000000    0.000000    0.000000    
